<svg width="25" height="21" xmlns="http://www.w3.org/2000/svg"><path d="M21.76104 5.60775c.01042.211.01442.42279.01442.63696C21.77546 12.75 16.77261 20.25 7.6245 20.25c-2.8084 0-5.42363-.81465-7.6245-2.21074.38952.04522.78465.06822 1.1862.06822 2.3307 0 4.47547-.78688 6.17701-2.10682-2.17602-.04045-4.01221-1.4643-4.64538-3.41962.30296.0587.61473.08805.93532.08805.45364 0 .89286-.0587 1.31043-.17213C2.68737 12.04482.973 10.0538.973 7.67094c0-.02142 0-.04204.0008-.06346.67004.36886 1.43706.59017 2.25297.61634-1.33527-.88445-2.2129-2.3892-2.2129-4.09783 0-.9019.24526-1.74828.67325-2.47488C4.14046 4.6289 7.80563 6.58897 11.93968 6.79363c-.08496-.35934-.12904-.73612-.12904-1.12163 0-2.71761 2.22651-4.922 4.974-4.922 1.43064 0 2.72263.5981 3.6299 1.55394 1.1333-.21973 2.19767-.63062 3.15865-1.1946-.3727 1.15018-1.16055 2.11475-2.18805 2.72316 1.00746-.11899 1.96604-.38393 2.85728-.775-.66523.98917-1.50919 1.85617-2.48138 2.55025z" fill="#FFF" fill-rule="evenodd"/></svg>