<svg id="Layer_1" data-name="Layer 1" xmlns="http://www.w3.org/2000/svg" viewBox="0 0 198.75 95.04"><defs><style>.cls-1{fill:#fff}</style></defs><path class="cls-1" d="M198.54 34.46C195 8.88 150.25-5.41 96.57 1.91 71.4 5.35 48.3 13.11 31.53 23.75 20.82 30.55 13.42 38.1 9.68 45.83a16.79 16.79 0 0 1 5.28 4c3-7 9.85-14.21 20-20.66 12.38-7.86 28.46-14.06 46.34-18a6.13 6.13 0 0 1 4.9-5.35l.26-.07h.27a7.72 7.72 0 0 1 1-.07 12.57 12.57 0 0 1 3.27.47l.28.07.92.21a16.38 16.38 0 0 1 5.3 1.84 191.57 191.57 0 0 1 25.8-1.77q5.39 0 10.53.32a6.09 6.09 0 0 1 4.75-4.58l.26-.07h.27a7.72 7.72 0 0 1 1-.07 12.57 12.57 0 0 1 3.25.52l.28.07.92.21c2 .44 4.58 1 6.25 2.54a7.12 7.12 0 0 1 2 3.81c22.16 4.36 37.59 13.74 39.28 26.13 2.9 21.28-35.57 44.84-84 51.45-24.2 3.27-47.57 2.07-65.71-3.43-1-.3-1.95-.61-2.89-.94a12.22 12.22 0 0 1-6.27 2.86 16.76 16.76 0 0 1-2.23.15c-.52 0-1-.07-1.56-.11a84.54 84.54 0 0 0 11.08 4.19c12 3.64 26.16 5.49 41.3 5.49A202 202 0 0 0 109 93.15c53.71-7.33 93-33.15 89.54-58.69z"/><path class="cls-1" d="M6.83 49.5c1.41-.19 4 2.16 4.92 3.17s2.26 2.12 2 3.82c-.34 2.13-1.78 3.86-2.68 5.76A21.48 21.48 0 0 0 9.52 68c-.22 1.33-1 4-.19 5.38s2-.87 2.65-1.78c2-2.89 4.45-12.72 4.69-13a2 2 0 0 1 2.33-.5 10.16 10.16 0 0 1 3.63 2.33 16.38 16.38 0 0 1 2.93 2.67c.78 1.25.29 3 .24 4.46a20.47 20.47 0 0 0 .1 5.14c.38 1.57 1.36.89 2.45.05 3.08-2.35 5-6.52 6.2-10.07a32.75 32.75 0 0 0 1.89-12.81c-.06-.94-.57-2.95 1-2.77 1.19.13 3.34 2.47 4.16 3.4s2.06 2 2.47 3.27a16.59 16.59 0 0 1 .16 6.16 32.16 32.16 0 0 1-1.16 5.88 53.78 53.78 0 0 1-2.17 6.68c-1.08 3.33-3.53 7.95-8.26 8.58s-9.5-1.58-11.57-4.53C18.7 80.1 15.31 82.78 9.66 81a14.83 14.83 0 0 1-9.25-9.22c-.93-4-.15-7.77 1-11.63a40 40 0 0 1 3.4-7.84c.34-.68 1.05-2.81 2.02-2.81zM65 41.78c2.86-.39 5.09-1 7.6.92 2.8 2.18 4.77 6.65 5.78 10 2.09 7-2.67 13.68-7.85 18C65.9 74.49 59.54 77 54.25 73A24.63 24.63 0 0 1 48 65.43c-1.92-3.54-.82-7.09 1.1-10.33a37.23 37.23 0 0 1 8.11-9.57 15.87 15.87 0 0 1 4.58-2.89 17.42 17.42 0 0 1 3.21-.86zM53.71 66.47c4.73 2.67 10-2 13.8-4.89 6-4.63 6.58-10.8 5.46-12.33s-4.06-.63-5.39 0A23.92 23.92 0 0 0 62 53.37c-1.94 1.71-9.93 10.12-8.29 13.1zM87.32 9.95a8 8 0 0 1 2.93.43c1.39.36 4.29.78 5.32 1.74s1 3.91.94 5.51C96.37 23.54 96 33.1 95.43 39c-.66 7-1.28 13.95-1.8 20.93-.18 2.43-.25 4.88-.47 7.31-.1 1.08-.26 3.18-1.45 3.73-.87.41-7.93-1.13-8.33-1.28-1.5-.56-1-1.6-.93-3.09.46-6 .75-12 1.07-18 .35-6.65 1-16.85 1.41-23.49.21-3.62.41-7.25.58-10.88.1-2.16-.51-3.65 1.81-4.28zM139.69 6.37a8 8 0 0 1 2.93.43c1.39.36 4.29.78 5.32 1.74s1 3.91.94 5.51c-.14 5.92-.53 11.9-1.08 17.79-.66 7-1.28 13.95-1.8 20.93-.18 2.43-.25 4.88-.47 7.31-.1 1.08-.26 3.18-1.45 3.73-.87.41-7.93-1.13-8.33-1.28-1.5-.56-1-1.6-.93-3.09.46-6 .75-12 1.07-18 .35-6.65 1-13.27 1.41-19.92.21-3.62.41-7.25.58-10.88.12-2.15-.55-3.64 1.81-4.27zM117.41 34.63c2.86-.39 5.09-1 7.6.92 2.8 2.18 4.77 6.65 5.78 10 2.09 7-2.67 13.68-7.85 18-4.66 3.84-11 6.38-16.31 2.34a24.63 24.63 0 0 1-6.2-7.56c-1.92-3.54-.82-7.09 1.1-10.33a37.23 37.23 0 0 1 8.11-9.57 15.87 15.87 0 0 1 4.58-2.89 17.42 17.42 0 0 1 3.19-.91zm-11.34 24.69c5 1.88 10.26-1.69 13.8-4.89a16 16 0 0 0 4.2-5.32c.62-1.45 2.38-5.48 1.26-7s-4.06-.63-5.39 0a23.92 23.92 0 0 0-5.62 4.16 33 33 0 0 0-5 5.75c-1.43 1.98-3.6 4.67-3.25 7.3zM169.78 27.48c2.86-.39 5.09-1 7.6.92 2.8 2.18 4.77 6.65 5.78 10 2.09 7-2.67 13.68-7.85 18-4.66 3.84-11 6.38-16.31 2.34a24.63 24.63 0 0 1-6.2-7.56c-1.92-3.54-.82-7.09 1.1-10.33a37.23 37.23 0 0 1 8.1-9.61 15.87 15.87 0 0 1 4.58-2.89 17.42 17.42 0 0 1 3.2-.87zm-11.34 24.69c5 1.88 10.26-1.69 13.8-4.89a16 16 0 0 0 4.2-5.32c.62-1.45 2.38-5.48 1.26-7s-4.06-.63-5.39 0a23.92 23.92 0 0 0-5.62 4.16 33 33 0 0 0-5 5.75c-1.43 1.99-3.6 4.67-3.25 7.3z"/></svg>