<svg width="25" height="21" xmlns="http://www.w3.org/2000/svg"><path d="M21.761 5.608c.01.21.014.423.014.637 0 6.505-5.002 14.005-14.15 14.005A14.19 14.19 0 0 1 0 18.04c.39.044.785.067 1.186.067 2.33 0 4.476-.786 6.177-2.106a4.974 4.974 0 0 1-4.645-3.42 4.991 4.991 0 0 0 2.246-.084C2.687 12.045.973 10.054.973 7.671v-.064c.67.37 1.438.59 2.254.617a4.908 4.908 0 0 1-2.213-4.098c0-.902.245-1.748.673-2.475A14.17 14.17 0 0 0 11.94 6.794a4.878 4.878 0 0 1-.13-1.122c0-2.718 2.227-4.922 4.975-4.922 1.43 0 2.722.598 3.63 1.554a9.998 9.998 0 0 0 3.158-1.195 4.946 4.946 0 0 1-2.188 2.724 10.025 10.025 0 0 0 2.857-.775 9.992 9.992 0 0 1-2.481 2.55z" fill="#FFF" fill-rule="evenodd"/></svg>