<svg xmlns="http://www.w3.org/2000/svg" viewBox="0 0 499.8 239"><path d="M499.3 86.7C490.5 22.3 377.8-13.6 242.8 4.8 179.6 13.5 121.5 33 79.3 59.7c-26.9 17.1-45.5 36.1-55 55.5 6.8 2.9 12.4 9.1 13.3 10.1 7.5-17.7 24.8-35.7 50.3-52C119 53.5 159.5 37.9 204.4 28c.7-4.8 3.2-11 12.3-13.5l.7-.2.7-.1c.9-.1 1.7-.2 2.6-.2 3.2 0 6.1.8 8.2 1.3l.7.2c.6.2 1.4.3 2.3.5 4.2.9 9.2 2.1 13.2 4.6 22.2-3 44-4.5 64.9-4.5 9 0 17.9.3 26.5.8 1.1-4.4 4-9.4 12-11.5l.7-.2.7-.1c.9-.1 1.7-.2 2.6-.2 3.2 0 6.1.8 8.2 1.3l.7.2c.6.2 1.4.3 2.3.5 5.1 1.1 11.5 2.5 15.7 6.4 2.9 2.7 4.3 6.1 5.1 9.6 55.7 11 94.5 34.5 98.8 65.7 7.3 53.5-89.4 112.8-211.3 129.4-61 8.3-119.8 5.3-165.4-8.5-2.5-.8-4.9-1.5-7.3-2.4-4.6 3.9-9.9 6.4-15.8 7.2-1.8.2-3.7.4-5.6.4-1.3 0-2.6-.2-3.9-.3 8.4 3.9 17.7 7.5 27.9 10.5 30.2 9.2 65.8 13.8 103.9 13.8 22.1 0 45.1-1.6 68.4-4.8C409.2 215.8 508 151 499.3 86.7z" fill="#201228"/><path d="M17.2 124.5c3.5-.5 10.2 5.4 12.4 8 2.5 2.9 5.7 5.3 5 9.6-.9 5.4-4.5 9.7-6.8 14.5-2.2 4.5-3.1 9.6-3.9 14.5-.6 3.3-2.5 10.1-.5 13.5 2 3.3 5.1-2.2 6.7-4.5 5-7.3 11.2-32 11.8-32.8 1.5-2 4-1.8 5.8-1.2 3.6 1.2 6.4 3.4 9.1 5.9 2.1 1.9 5.8 4.2 7.4 6.7 2 3.1.7 7.5.6 11.2-.1 4-.7 9 .2 12.9 1 3.9 3.4 2.2 6.2.1 7.7-5.9 12.5-16.4 15.6-25.3 3.6-10.3 5.5-21.3 4.8-32.2-.2-2.4-1.4-7.4 2.6-7 3 .3 8.4 6.2 10.5 8.5 2.2 2.5 5.2 5 6.2 8.2 1.5 4.6.9 10.7.4 15.5-.5 5-1.5 10-2.9 14.8-.8 2.8-2.3 9.1-5.4 16.8-2.7 8.4-8.9 20-20.8 21.6s-23.9-4-29.1-11.4c-6 8.9-14.5 15.7-28.7 11.3S2.3 185.9 1 180.5c-2.3-10-.4-19.5 2.4-29.2 2-7.1 5.1-13.3 8.6-19.7 1-1.8 2.7-7.1 5.2-7.1zm146.4-19.4c7.2-1 12.8-2.6 19.1 2.3 7 5.5 12 16.7 14.5 25.1 5.2 17.6-6.7 34.4-19.8 45.1-11.7 9.7-27.7 16-41 5.9-6.3-4.8-11.9-12.1-15.6-19-4.8-8.9-2.1-17.8 2.8-26 5.5-9.3 12.1-17.1 20.4-24.1 3.6-3 7.1-5.6 11.5-7.3.5-.1 8-2.5 8.1-2zm-28.5 62c11.9 6.7 25.2-4.9 34.7-12.3 15-11.6 16.6-27.2 13.7-31-2.8-3.8-10.2-1.6-13.6-.1-5.1 2.3-9.9 6.7-14.1 10.5-4.8 4.3-24.9 25.5-20.7 32.9zM219.6 25c2.4-.3 5.1.5 7.4 1.1 3.5.9 10.8 2 13.4 4.4 2.9 2.7 2.5 9.8 2.4 13.9-.4 14.9-1.3 38.9-2.7 53.7-1.7 17.5-3.2 35.1-4.5 52.6-.4 6.1-.6 12.3-1.2 18.4-.3 2.7-.7 8-3.6 9.4-2.2 1-19.9-2.8-21-3.2-3.8-1.4-2.6-4-2.3-7.8 1.2-15.1 1.9-30.2 2.7-45.3.9-16.7 2.6-42.4 3.6-59.1.5-9.1 1-18.2 1.4-27.4.1-5.4-1.5-9.1 4.4-10.7zm131.7-9c2.4-.3 5.1.5 7.4 1.1 3.5.9 10.8 2 13.4 4.4 2.9 2.7 2.5 9.8 2.4 13.9-.4 14.9-1.3 29.9-2.7 44.7-1.7 17.5-3.2 35.1-4.5 52.6-.4 6.1-.6 12.3-1.2 18.4-.3 2.7-.7 8-3.6 9.4-2.2 1-19.9-2.8-21-3.2-3.8-1.4-2.6-4-2.3-7.8 1.2-15.1 1.9-30.2 2.7-45.3.9-16.7 2.6-33.4 3.6-50.1.5-9.1 1-18.2 1.4-27.4.1-5.4-1.6-9.1 4.4-10.7zm-56.1 71.1c7.2-1 12.8-2.6 19.1 2.3 7 5.5 12 16.7 14.5 25.1 5.2 17.6-6.7 34.4-19.8 45.1-11.7 9.7-27.7 16-41 5.9-6.3-4.8-11.9-12.1-15.6-19-4.8-8.9-2.1-17.8 2.8-26 5.5-9.3 12.1-17.1 20.4-24.1 3.6-3 7.1-5.6 11.5-7.3.6 0 8.1-2.5 8.1-2zm-28.5 62.1c12.5 4.7 25.8-4.3 34.7-12.3 4.2-3.8 8.3-8.1 10.6-13.4 1.6-3.6 6-13.8 3.2-17.6-2.8-3.8-10.2-1.6-13.6-.1-5.1 2.3-9.9 6.7-14.1 10.5-4.8 4.3-9 9.2-12.6 14.5-3.6 5-9.1 11.8-8.2 18.4zm160.2-80.1c7.2-1 12.8-2.6 19.1 2.3 7 5.5 12 16.7 14.5 25.1 5.2 17.6-6.7 34.4-19.8 45.1-11.7 9.7-27.7 16-41 5.9-6.3-4.8-11.9-12.1-15.6-19-4.8-8.9-2.1-17.8 2.8-26 5.5-9.3 12.1-17.1 20.4-24.1 3.6-3 7.1-5.6 11.5-7.3.6 0 8.1-2.5 8.1-2zm-28.5 62.1c12.5 4.7 25.8-4.3 34.7-12.3 4.2-3.8 8.3-8.1 10.6-13.4 1.6-3.6 6-13.8 3.2-17.6-2.8-3.8-10.2-1.6-13.6-.1-5.1 2.3-9.9 6.7-14.1 10.5-4.8 4.3-9 9.2-12.6 14.5-3.6 5-9.1 11.8-8.2 18.4z" fill="#201228"/></svg>